<svg width="46" height="66" viewBox="0 0 46 66" fill="none" xmlns="http://www.w3.org/2000/svg">
<path d="M10.252 27.54C11.132 26.1907 12.232 25.1347 13.552 24.372C14.872 23.58 16.3387 23.184 17.952 23.184V31.148H15.884C14.0067 31.148 12.5987 31.5587 11.66 32.38C10.7213 33.172 10.252 34.58 10.252 36.604V48H2.728V23.448H10.252V27.54ZM29.5123 15.44V48H21.9883V15.44H29.5123ZM38.9249 48.352C37.6049 48.352 36.5195 47.9707 35.6689 47.208C34.8475 46.416 34.4369 45.448 34.4369 44.304C34.4369 43.1307 34.8475 42.148 35.6689 41.356C36.5195 40.564 37.6049 40.168 38.9249 40.168C40.2155 40.168 41.2715 40.564 42.0929 41.356C42.9435 42.148 43.3689 43.1307 43.3689 44.304C43.3689 45.448 42.9435 46.416 42.0929 47.208C41.2715 47.9707 40.2155 48.352 38.9249 48.352Z" fill="#0C2A35" fill-opacity="0.984314"/>
</svg>
